<?xml version="1.0" encoding="UTF-8"?>
<svg width="108px" height="108px" viewBox="0 0 108 108" version="1.1" xmlns="http://www.w3.org/2000/svg" xmlns:xlink="http://www.w3.org/1999/xlink">
    <!-- Generator: Sketch 47.1 (45422) - http://www.bohemiancoding.com/sketch -->
    <title>Group</title>
    <desc>Created with Sketch.</desc>
    <defs></defs>
    <g id="App-Screens" stroke="none" stroke-width="1" fill="none" fill-rule="evenodd">
        <g id="Dashboard/Error_permissions" transform="translate(-586.000000, -269.000000)">
            <g id="Group" transform="translate(586.000000, 270.000000)">
                <path d="M107.122359,53.5 C107.122359,83.0476042 83.1425726,107 53.5611795,107 C23.9797864,107 0,83.0476042 0,53.5 C0,23.9523958 23.9797864,0 53.5611795,0 C83.1425726,0 107.122359,23.9523958 107.122359,53.5" id="Fill-1" fill="#EEEEEE"></path>
                <path d="M41.7402949,56.5597429 L41.7402949,25.8173054 C41.7402949,19.3348887 47.5249023,14.0584512 54.0147318,14.0584512 C60.5045614,14.0584512 66.2891688,19.3348887 66.2891688,25.8173054 L66.2891688,56.5597429 L79.6794637,56.5597429 L79.6794637,26.4972012 C79.6794637,12.6317845 67.8937725,1.35443038 54.0147318,1.35443038 C40.1356912,1.35443038 28.35,12.6317845 28.35,26.4972012 L28.35,56.5597429 L41.7402949,56.5597429 Z" id="Fill-3" fill="#FFFFFF"></path>
                <path d="M41.7402949,56.5597429 L41.7402949,25.8173054 C41.7402949,19.3348887 47.5249023,14.0584512 54.0147318,14.0584512 C60.5045614,14.0584512 66.2891688,19.3348887 66.2891688,25.8173054 L66.2891688,56.5597429 L79.6794637,56.5597429 L79.6794637,26.4972012 C79.6794637,12.6317845 67.8937725,1.35443038 54.0147318,1.35443038 C40.1356912,1.35443038 28.35,12.6317845 28.35,26.4972012 L28.35,56.5597429 L41.7402949,56.5597429 Z" id="Stroke-5" stroke="#00838F" stroke-width="4.455"></path>
                <path d="M18.9,49.1545359 L18.9,89.2795359 C18.9,91.7405359 20.8996174,93.7378692 23.3634316,93.7378692 L83.6197585,93.7378692 C86.0835728,93.7378692 88.0831902,91.7405359 88.0831902,89.2795359 L88.0831902,49.1545359 C88.0831902,46.6935359 86.0835728,44.6962025 83.6197585,44.6962025 L23.3634316,44.6962025 C20.8996174,44.6962025 18.9,46.6935359 18.9,49.1545359 C56.868852,56.6921564 75.853278,60.4609667 75.853278,60.4609667" id="Fill-7" fill="#00ACC1"></path>
                <path d="M57.9405005,80.9267874 L57.9405005,70.7729332 C60.5962423,69.2281207 62.4039321,66.3859332 62.4039321,63.093454 C62.4039321,57.4714957 57.1973392,53.0644332 51.3368534,54.426454 C48.1722804,55.1598499 45.5968804,57.7055582 44.8247067,60.8575999 C43.793654,65.0662665 45.7687225,68.8870582 49.0136373,70.7729332 L49.0136373,80.9267874 C49.0136373,83.3877874 51.0132546,85.3851207 53.4770689,85.3851207 C55.9408831,85.3851207 57.9405005,83.3877874 57.9405005,80.9267874" id="Fill-21" fill="#FFFFFF"></path>
                <path d="M18.9,49.1545359 L18.9,89.2795359 C18.9,91.7405359 20.8996174,93.7378692 23.3634316,93.7378692 L83.6197585,93.7378692 C86.0835728,93.7378692 88.0831902,91.7405359 88.0831902,89.2795359 L88.0831902,49.1545359 C88.0831902,46.6935359 86.0835728,44.6962025 83.6197585,44.6962025 L23.3634316,44.6962025 C20.8996174,44.6962025 18.9,46.6935359 18.9,49.1545359 Z" id="Stroke-9" stroke="#00838F" stroke-width="4.455"></path>
                <path d="M57.9405005,80.9267874 L57.9405005,70.7729332 C60.5962423,69.2281207 62.4039321,66.3859332 62.4039321,63.093454 C62.4039321,57.4714957 57.1973392,53.0644332 51.3368534,54.426454 C48.1722804,55.1598499 45.5968804,57.7055582 44.8247067,60.8575999 C43.793654,65.0662665 45.7687225,68.8870582 49.0136373,70.7729332 L49.0136373,80.9267874 C49.0136373,83.3877874 51.0132546,85.3851207 53.4770689,85.3851207 C55.9408831,85.3851207 57.9405005,83.3877874 57.9405005,80.9267874 Z" id="Stroke-23" stroke="#00838F" stroke-width="4.455"></path>
                <g id="Group-4" transform="translate(18.900000, 1.354430)"></g>
            </g>
        </g>
    </g>
</svg>